<svg width="700" height="771" viewBox="0 0 700 771" fill="none" xmlns="http://www.w3.org/2000/svg">
<mask id="mask0_2199_12961" style="mask-type:alpha" maskUnits="userSpaceOnUse" x="0" y="-1" width="700" height="772">
<rect x="700" y="771" width="700" height="771" transform="rotate(-180 700 771)" fill="#C4C4C4"/>
</mask>
<g mask="url(#mask0_2199_12961)">
<g opacity="0.6">
<path d="M478.346 849.213L990.932 0.560181L702.446 0.560155L189.875 849.213L478.346 849.213Z" fill="url(#paint0_linear_2199_12961)"/>
<path d="M316.403 933.023L457.83 698.858C459.706 695.724 460.719 692.149 460.766 688.497C460.813 684.845 459.893 681.246 458.099 678.064C456.305 674.883 453.701 672.233 450.551 670.384C447.402 668.535 443.819 667.552 440.166 667.536L96.1172 667.536C92.553 667.528 89.0473 668.442 85.9397 670.187C82.8321 671.932 80.2279 674.451 78.3796 677.499L-63.0625 911.678C-64.9415 914.818 -65.9545 918.399 -65.9985 922.057C-66.0426 925.715 -65.1159 929.32 -63.3131 932.504C-61.5103 935.687 -58.8956 938.336 -55.7357 940.18C-52.5757 942.023 -48.9835 942.997 -45.325 943L298.724 943C302.28 942.996 305.774 942.076 308.871 940.328C311.967 938.58 314.561 936.064 316.403 933.023Z" fill="url(#paint1_linear_2199_12961)"/>
<path d="M649.735 819.709L1036 180.197L698.44 180.197L312.175 819.709L649.735 819.709Z" fill="url(#paint2_linear_2199_12961)"/>
<path d="M627.061 470.309L766.375 239.721C766.807 239.006 767.041 238.189 767.054 237.353C767.066 236.518 766.857 235.694 766.446 234.966C766.036 234.238 765.439 233.632 764.717 233.211C763.996 232.789 763.175 232.567 762.339 232.567L735.497 232.567C734.684 232.57 733.886 232.782 733.179 233.184C732.472 233.585 731.88 234.162 731.461 234.858L592.162 465.446C591.73 466.161 591.496 466.979 591.483 467.814C591.471 468.65 591.68 469.474 592.091 470.202C592.502 470.93 593.098 471.535 593.82 471.957C594.541 472.378 595.362 472.6 596.198 472.6L623.041 472.6C623.851 472.596 624.647 472.383 625.351 471.982C626.055 471.581 626.644 471.005 627.061 470.309Z" fill="url(#paint3_linear_2199_12961)"/>
<path d="M627.061 470.309L766.375 239.721C766.807 239.006 767.041 238.189 767.054 237.353C767.066 236.518 766.857 235.694 766.446 234.966C766.036 234.238 765.439 233.632 764.717 233.211C763.996 232.789 763.175 232.567 762.339 232.567L735.497 232.567C734.684 232.57 733.886 232.782 733.179 233.184C732.472 233.585 731.88 234.162 731.461 234.858L592.162 465.446C591.73 466.161 591.496 466.979 591.483 467.814C591.471 468.65 591.68 469.474 592.091 470.202C592.502 470.93 593.098 471.535 593.82 471.957C594.541 472.378 595.362 472.6 596.198 472.6L623.041 472.6C623.851 472.596 624.647 472.383 625.351 471.982C626.055 471.581 626.644 471.005 627.061 470.309Z" stroke="url(#paint4_linear_2199_12961)" stroke-width="1.78" stroke-miterlimit="10"/>
<path d="M799.1 433.652L589.014 433.652C586.505 433.65 584.037 434.297 581.851 435.53C579.666 436.762 577.835 438.539 576.539 440.688L497.577 571.413C496.231 573.626 495.498 576.158 495.454 578.748C495.41 581.338 496.056 583.893 497.326 586.15C498.596 588.408 500.445 590.286 502.681 591.593C504.918 592.9 507.462 593.587 510.052 593.585L720.183 593.585C722.692 593.584 725.158 592.936 727.344 591.704C729.529 590.471 731.36 588.696 732.659 586.549L811.62 455.809C812.97 453.594 813.704 451.059 813.746 448.465C813.789 445.872 813.139 443.314 811.863 441.056C810.587 438.798 808.731 436.921 806.488 435.62C804.244 434.318 801.694 433.639 799.1 433.652Z" fill="url(#paint5_linear_2199_12961)"/>
<path d="M799.1 433.652L589.014 433.652C586.505 433.65 584.037 434.297 581.851 435.53C579.666 436.762 577.835 438.539 576.539 440.688L497.577 571.413C496.231 573.626 495.498 576.158 495.454 578.748C495.41 581.338 496.056 583.893 497.326 586.15C498.596 588.408 500.445 590.286 502.681 591.593C504.918 592.9 507.462 593.587 510.052 593.585L720.183 593.585C722.692 593.584 725.158 592.936 727.344 591.704C729.529 590.471 731.36 588.696 732.659 586.549L811.62 455.809C812.97 453.594 813.704 451.059 813.746 448.465C813.789 445.872 813.139 443.314 811.863 441.056C810.587 438.798 808.731 436.921 806.488 435.62C804.244 434.318 801.694 433.639 799.1 433.652Z" stroke="url(#paint6_linear_2199_12961)" stroke-width="1.78" stroke-miterlimit="10"/>
<path d="M776.101 283.341L552.785 653.065C552.01 654.349 551.59 655.816 551.568 657.316C551.546 658.815 551.923 660.294 552.659 661.6C553.396 662.907 554.466 663.994 555.761 664.751C557.056 665.509 558.528 665.908 560.028 665.91L601.209 665.91C602.667 665.91 604.1 665.534 605.371 664.82C606.642 664.105 607.708 663.076 608.466 661.831L831.767 292.106C832.542 290.822 832.962 289.355 832.984 287.856C833.006 286.356 832.629 284.877 831.893 283.571C831.156 282.265 830.086 281.177 828.791 280.42C827.496 279.663 826.024 279.263 824.524 279.261L783.344 279.261C781.887 279.257 780.453 279.631 779.184 280.346C777.915 281.061 776.852 282.093 776.101 283.341Z" fill="url(#paint7_linear_2199_12961)"/>
<path d="M776.101 283.341L552.785 653.065C552.01 654.349 551.59 655.816 551.568 657.316C551.546 658.815 551.923 660.294 552.659 661.6C553.396 662.907 554.466 663.994 555.761 664.751C557.056 665.509 558.528 665.908 560.028 665.91L601.209 665.91C602.667 665.91 604.1 665.534 605.371 664.82C606.642 664.105 607.708 663.076 608.466 661.831L831.767 292.106C832.542 290.822 832.962 289.355 832.984 287.856C833.006 286.356 832.629 284.877 831.893 283.571C831.156 282.265 830.086 281.177 828.791 280.42C827.496 279.663 826.024 279.263 824.524 279.261L783.344 279.261C781.887 279.257 780.453 279.631 779.184 280.346C777.915 281.061 776.852 282.093 776.101 283.341V283.341Z" stroke="url(#paint8_linear_2199_12961)" stroke-width="1.78" stroke-miterlimit="10"/>
<g style="mix-blend-mode:overlay">
<g style="mix-blend-mode:overlay">
<path d="M740.729 424.886L617.97 628.129" stroke="#64646D" stroke-width="1.13" stroke-miterlimit="10"/>
</g>
<g style="mix-blend-mode:overlay">
<path d="M730.707 424.886L607.963 628.129" stroke="#64646D" stroke-width="1.13" stroke-miterlimit="10"/>
</g>
<g style="mix-blend-mode:overlay">
<path d="M720.7 424.886L597.942 628.129" stroke="#64646D" stroke-width="1.13" stroke-miterlimit="10"/>
</g>
<g style="mix-blend-mode:overlay">
<path d="M710.693 424.886L587.935 628.129" stroke="#64646D" stroke-width="1.13" stroke-miterlimit="10"/>
</g>
<g style="mix-blend-mode:overlay">
<path d="M700.687 424.886L577.928 628.129" stroke="#64646D" stroke-width="1.13" stroke-miterlimit="10"/>
</g>
</g>
<path d="M728.061 784.722L810.985 647.493C812.697 644.654 813.625 641.411 813.673 638.096C813.721 634.781 812.887 631.513 811.257 628.626C809.627 625.738 807.259 623.336 804.396 621.665C801.533 619.993 798.277 619.113 794.962 619.113L421.394 619.112C418.173 619.1 415.002 619.919 412.19 621.491C409.378 623.063 407.019 625.334 405.342 628.085L364.693 695.399C363.026 698.156 360.675 700.437 357.868 702.019C355.061 703.601 351.893 704.432 348.67 704.43L128.71 704.43C125.486 704.43 122.316 705.261 119.507 706.843C116.698 708.425 114.344 710.705 112.672 713.461L81.3359 765.373C79.6232 768.212 78.6955 771.455 78.6476 774.77C78.5997 778.085 79.4334 781.353 81.0634 784.24C82.6934 787.127 85.0611 789.53 87.9243 791.201C90.7875 792.873 94.0435 793.753 97.3589 793.753L712.039 793.753C715.26 793.751 718.427 792.918 721.233 791.336C724.039 789.755 726.391 787.477 728.061 784.722Z" fill="url(#paint9_linear_2199_12961)"/>
<path d="M728.061 784.722L810.985 647.493C812.697 644.654 813.625 641.411 813.673 638.096C813.721 634.781 812.887 631.513 811.257 628.626C809.627 625.738 807.259 623.336 804.396 621.665C801.533 619.993 798.277 619.113 794.962 619.113L421.394 619.112C418.172 619.1 415.002 619.919 412.19 621.491C409.378 623.063 407.019 625.334 405.342 628.085L364.693 695.399C363.026 698.156 360.675 700.437 357.868 702.019C355.061 703.601 351.893 704.432 348.67 704.43L128.71 704.43C125.486 704.43 122.316 705.261 119.507 706.843C116.698 708.425 114.344 710.705 112.672 713.461L81.3359 765.373C79.6232 768.212 78.6955 771.455 78.6476 774.77C78.5997 778.085 79.4334 781.353 81.0634 784.24C82.6934 787.127 85.0611 789.53 87.9243 791.201C90.7876 792.873 94.0435 793.753 97.3589 793.753L712.039 793.753C715.26 793.751 718.427 792.918 721.233 791.336C724.039 789.755 726.391 787.477 728.061 784.722V784.722Z" stroke="url(#paint10_linear_2199_12961)" stroke-width="1.78" stroke-miterlimit="10"/>
</g>
</g>
<defs>
<linearGradient id="paint0_linear_2199_12961" x1="890.552" y1="-75.3713" x2="436.028" y2="682.184" gradientUnits="userSpaceOnUse">
<stop stop-color="#303842"/>
<stop offset="0.01" stop-color="#303741"/>
<stop offset="0.4" stop-color="#1C2026"/>
<stop offset="0.74" stop-color="#0F1215"/>
<stop offset="1" stop-color="#0B0D0F"/>
</linearGradient>
<linearGradient id="paint1_linear_2199_12961" x1="447.882" y1="774.02" x2="-212.605" y2="856.426" gradientUnits="userSpaceOnUse">
<stop stop-color="#0B0D0F"/>
<stop offset="0.26" stop-color="#0F1215"/>
<stop offset="0.6" stop-color="#1C2026"/>
<stop offset="0.99" stop-color="#303741"/>
<stop offset="1" stop-color="#303842"/>
</linearGradient>
<linearGradient id="paint2_linear_2199_12961" x1="-57456.3" y1="-365698" x2="-206461" y2="-84615.6" gradientUnits="userSpaceOnUse">
<stop stop-color="#303842"/>
<stop offset="0.01" stop-color="#303741"/>
<stop offset="0.4" stop-color="#1C2026"/>
<stop offset="0.74" stop-color="#0F1215"/>
<stop offset="1" stop-color="#0B0D0F"/>
</linearGradient>
<linearGradient id="paint3_linear_2199_12961" x1="598.208" y1="488.18" x2="750.84" y2="232.833" gradientUnits="userSpaceOnUse">
<stop stop-color="#0B0D0F"/>
<stop offset="0.26" stop-color="#0F1215"/>
<stop offset="0.6" stop-color="#1C2026"/>
<stop offset="0.99" stop-color="#303842"/>
<stop offset="1" stop-color="#303842"/>
</linearGradient>
<linearGradient id="paint4_linear_2199_12961" x1="603.529" y1="479.281" x2="755.037" y2="225.827" gradientUnits="userSpaceOnUse">
<stop stop-color="#0B0D0F"/>
<stop offset="0.54" stop-color="#1E2329"/>
<stop offset="1" stop-color="#303842"/>
</linearGradient>
<linearGradient id="paint5_linear_2199_12961" x1="759.309" y1="513.589" x2="441.053" y2="513.589" gradientUnits="userSpaceOnUse">
<stop stop-color="#0B0D0F"/>
<stop offset="0.32" stop-color="#14181C"/>
<stop offset="0.91" stop-color="#2C333D"/>
<stop offset="1" stop-color="#303842"/>
</linearGradient>
<linearGradient id="paint6_linear_2199_12961" x1="815.02" y1="513.589" x2="494.133" y2="513.589" gradientUnits="userSpaceOnUse">
<stop stop-color="#0B0D0F"/>
<stop offset="0.47" stop-color="#1B1F25"/>
<stop offset="1" stop-color="#303842"/>
</linearGradient>
<linearGradient id="paint7_linear_2199_12961" x1="-23914.8" y1="-5767.93" x2="45875.8" y2="-88416.2" gradientUnits="userSpaceOnUse">
<stop stop-color="#0B0D0F"/>
<stop offset="0.26" stop-color="#0F1215"/>
<stop offset="0.6" stop-color="#1C2026"/>
<stop offset="0.99" stop-color="#303842"/>
<stop offset="1" stop-color="#303842"/>
</linearGradient>
<linearGradient id="paint8_linear_2199_12961" x1="568.424" y1="674.099" x2="816.143" y2="271.072" gradientUnits="userSpaceOnUse">
<stop stop-color="#0B0D0F"/>
<stop offset="0.13" stop-color="#14171B"/>
<stop offset="0.61" stop-color="#303842"/>
</linearGradient>
<linearGradient id="paint9_linear_2199_12961" x1="658.264" y1="706.411" x2="-76.8237" y2="706.411" gradientUnits="userSpaceOnUse">
<stop stop-color="#0B0D0F"/>
<stop offset="1" stop-color="#303842"/>
</linearGradient>
<linearGradient id="paint10_linear_2199_12961" x1="815.02" y1="706.411" x2="77.3007" y2="706.411" gradientUnits="userSpaceOnUse">
<stop stop-color="#0B0D0F"/>
<stop offset="0.81" stop-color="#292F38"/>
<stop offset="1" stop-color="#303842"/>
</linearGradient>
</defs>
</svg>
