<svg width="16" height="16" viewBox="0 0 16 16" fill="none" xmlns="http://www.w3.org/2000/svg">
    <path
        d="M12.9175 8.27722L5.8515 12.9879C5.8013 13.0213 5.74298 13.0404 5.68276 13.0433C5.62253 13.0462 5.56265 13.0327 5.5095 13.0042C5.45634 12.9758 5.4119 12.9334 5.38091 12.8817C5.34991 12.83 5.33353 12.7708 5.3335 12.7105V3.28922C5.33353 3.22892 5.34991 3.16976 5.38091 3.11804C5.4119 3.06633 5.45634 3.02398 5.5095 2.99552C5.56265 2.96706 5.62253 2.95355 5.68276 2.95644C5.74298 2.95932 5.8013 2.97848 5.8515 3.01188L12.9175 7.72255C12.9631 7.75299 13.0006 7.79423 13.0265 7.84261C13.0524 7.89099 13.0659 7.94501 13.0659 7.99988C13.0659 8.05475 13.0524 8.10878 13.0265 8.15715C13.0006 8.20553 12.9631 8.24678 12.9175 8.27722Z"
        fill="#A6A6B0" />
</svg>