<svg width="16" height="16" viewBox="0 0 16 16" fill="none" xmlns="http://www.w3.org/2000/svg">
    <g clip-path="url(#clip0_12884_119266)">
        <path
            d="M1.3335 8.00004C1.3335 7.42337 1.40683 6.86471 1.54416 6.33071C1.91247 6.35007 2.27896 6.26721 2.60312 6.09129C2.92728 5.91536 3.19648 5.65323 3.38097 5.33387C3.56545 5.01451 3.65803 4.65035 3.64848 4.28165C3.63893 3.91296 3.52761 3.55409 3.32683 3.24471C4.13279 2.45175 5.12736 1.87704 6.21683 1.57471C6.38416 1.90369 6.63925 2.17995 6.95389 2.37291C7.26852 2.56588 7.63041 2.66801 7.9995 2.66801C8.36859 2.66801 8.73048 2.56588 9.04511 2.37291C9.35974 2.17995 9.61484 1.90369 9.78216 1.57471C10.8716 1.87704 11.8662 2.45175 12.6722 3.24471C12.4712 3.55414 12.3597 3.91315 12.3501 4.28202C12.3404 4.65088 12.433 5.01522 12.6176 5.33471C12.8022 5.65421 13.0716 5.91642 13.396 6.09232C13.7203 6.26822 14.087 6.35095 14.4555 6.33137C14.5928 6.86471 14.6662 7.42337 14.6662 8.00004C14.6662 8.57671 14.5928 9.13537 14.4555 9.66937C14.0871 9.64988 13.7205 9.73265 13.3963 9.90851C13.072 10.0844 12.8027 10.3465 12.6182 10.6659C12.4336 10.9853 12.341 11.3495 12.3505 11.7182C12.36 12.087 12.4713 12.4459 12.6722 12.7554C11.8662 13.5483 10.8716 14.123 9.78216 14.4254C9.61484 14.0964 9.35974 13.8201 9.04511 13.6272C8.73048 13.4342 8.36859 13.3321 7.9995 13.3321C7.63041 13.3321 7.26852 13.4342 6.95389 13.6272C6.63925 13.8201 6.38416 14.0964 6.21683 14.4254C5.12736 14.123 4.13279 13.5483 3.32683 12.7554C3.52783 12.4459 3.63932 12.0869 3.64894 11.7181C3.65857 11.3492 3.56596 10.9849 3.38137 10.6654C3.19678 10.3459 2.9274 10.0837 2.60303 9.90776C2.27867 9.73186 1.91197 9.64913 1.5435 9.66871C1.40683 9.13604 1.3335 8.57737 1.3335 8.00004ZM4.53616 10C4.95616 10.7274 5.07616 11.564 4.91216 12.3494C5.18416 12.5427 5.4735 12.71 5.77683 12.8494C6.38794 12.3019 7.17971 11.9995 8.00016 12C8.84016 12 9.6255 12.314 10.2235 12.8494C10.5268 12.71 10.8162 12.5427 11.0882 12.3494C10.9198 11.5467 11.0537 10.7101 11.4642 10C11.8739 9.28962 12.5315 8.75548 13.3108 8.50004C13.3417 8.16742 13.3417 7.83266 13.3108 7.50004C12.5313 7.24475 11.8734 6.71059 11.4635 6.00004C11.053 5.28999 10.9191 4.4534 11.0875 3.65071C10.8156 3.45732 10.5261 3.28992 10.2228 3.15071C9.61189 3.698 8.82039 4.00045 8.00016 4.00004C7.17971 4.00061 6.38794 3.69815 5.77683 3.15071C5.47358 3.28992 5.18409 3.45733 4.91216 3.65071C5.08054 4.4534 4.94665 5.28999 4.53616 6.00004C4.12641 6.71046 3.46882 7.2446 2.6895 7.50004C2.65866 7.83266 2.65866 8.16742 2.6895 8.50004C3.46907 8.75533 4.12692 9.28949 4.53683 10H4.53616ZM8.00016 10C7.46973 10 6.96102 9.78933 6.58595 9.41425C6.21088 9.03918 6.00016 8.53047 6.00016 8.00004C6.00016 7.46961 6.21088 6.9609 6.58595 6.58583C6.96102 6.21075 7.46973 6.00004 8.00016 6.00004C8.5306 6.00004 9.0393 6.21075 9.41438 6.58583C9.78945 6.9609 10.0002 7.46961 10.0002 8.00004C10.0002 8.53047 9.78945 9.03918 9.41438 9.41425C9.0393 9.78933 8.5306 10 8.00016 10ZM8.00016 8.66671C8.17697 8.66671 8.34654 8.59647 8.47157 8.47144C8.59659 8.34642 8.66683 8.17685 8.66683 8.00004C8.66683 7.82323 8.59659 7.65366 8.47157 7.52864C8.34654 7.40361 8.17697 7.33337 8.00016 7.33337C7.82335 7.33337 7.65378 7.40361 7.52876 7.52864C7.40373 7.65366 7.3335 7.82323 7.3335 8.00004C7.3335 8.17685 7.40373 8.34642 7.52876 8.47144C7.65378 8.59647 7.82335 8.66671 8.00016 8.66671Z"
            fill="#A6A6B0" />
    </g>
    <defs>
        <clipPath id="clip0_12884_119266">
            <rect width="16" height="16" fill="white" />
        </clipPath>
    </defs>
</svg>