<svg width="8" height="8" viewBox="0 0 8 8" fill="none" xmlns="http://www.w3.org/2000/svg">
    <path
        d="M7.5286 2.59286C7.5286 2.53571 7.50002 2.47143 7.45717 2.42857L7.10002 2.07143C7.05717 2.02857 6.99288 2 6.93574 2C6.8786 2 6.81431 2.02857 6.77145 2.07143L3.96431 4.87857L1.15717 2.07143C1.11431 2.02857 1.05002 2 0.992882 2C0.928596 2 0.871453 2.02857 0.828596 2.07143L0.471453 2.42857C0.428596 2.47143 0.400024 2.53571 0.400024 2.59286C0.400024 2.65 0.428596 2.71429 0.471453 2.75714L3.80002 6.08571C3.84288 6.12857 3.90717 6.15714 3.96431 6.15714C4.02145 6.15714 4.08574 6.12857 4.1286 6.08571L7.45717 2.75714C7.50002 2.71429 7.5286 2.65 7.5286 2.59286Z"
        fill="#8A90A6" />
</svg>