<svg width="75" height="24" viewBox="0 0 75 24" fill="none" xmlns="http://www.w3.org/2000/svg">
    <path
        d="M6.22239 17.8001H6.03672L2.30838 7.19729H0.00476074V7.47626L4.84805 20.4004H7.39239L12.2329 7.47626V7.19729H9.94792L6.22239 17.8001Z"
        fill="#111111" />
    <path
        d="M30.3101 8.39809H28.1371V10.8053H26.3075V12.3196H28.1371V18.0781C28.1371 18.8395 28.3517 19.417 28.7828 19.8108C29.2129 20.2045 29.8156 20.4004 30.5891 20.4004H32.3534V18.8031H31.0995C30.5732 18.8031 30.3101 18.54 30.3101 18.0138V12.3196H32.4094V10.8053H30.3101V8.39809Z"
        fill="#111111" />
    <path
        d="M21.4792 10.5832C20.0368 10.5832 18.8864 11.0059 18.0289 11.8512C17.1715 12.6965 16.7423 13.9458 16.7423 15.5991C16.7423 17.2524 17.1724 18.5036 18.0336 19.3517C18.8938 20.1998 20.0489 20.6243 21.4979 20.6243C22.2284 20.6243 22.8526 20.5301 23.3695 20.3407C23.8864 20.1522 24.3137 19.9059 24.6515 19.6027C24.9892 19.2994 25.2477 18.9738 25.4268 18.6277C25.606 18.2806 25.7273 17.9494 25.7888 17.634V17.355H23.8566C23.8127 17.6088 23.7045 17.8663 23.5319 18.1257C23.3583 18.386 23.1046 18.6025 22.7705 18.776C22.4365 18.9496 22.0027 19.0363 21.4699 19.0363C20.6461 19.0363 20.0088 18.7714 19.5563 18.2423C19.1038 17.7133 18.8687 17.0117 18.85 16.1384H25.9838V15.2184C25.9838 13.776 25.5938 12.6424 24.8138 11.8185C24.0338 10.9947 22.9217 10.5832 21.4792 10.5832ZM18.878 14.6232C18.9396 13.9113 19.1849 13.3216 19.6123 12.8542C20.0396 12.3867 20.6554 12.1525 21.4606 12.1525C22.2658 12.1525 22.8956 12.383 23.2949 12.8448C23.6942 13.3067 23.8967 13.8991 23.9032 14.6232H18.878Z"
        fill="#111111" />
    <path
        d="M39.5956 17.9485C39.4379 18.2517 39.2009 18.5008 38.8846 18.6958C38.5693 18.8908 38.1541 18.9888 37.64 18.9888C36.8161 18.9888 36.1677 18.693 35.6937 18.1015C35.2197 17.5099 34.9828 16.6758 34.9828 15.5982C34.9828 14.5205 35.2207 13.6958 35.6984 13.1042C36.1751 12.5127 36.8227 12.2169 37.64 12.2169C38.1419 12.2169 38.5487 12.3112 38.8613 12.5006C39.1739 12.69 39.4081 12.9279 39.5629 13.2162C39.7178 13.5045 39.8102 13.8003 39.8419 14.1035H41.9039V13.8245C41.8479 13.2862 41.6566 12.7693 41.3282 12.2729C40.9998 11.7775 40.5295 11.3716 39.9165 11.0563C39.3036 10.7409 38.5385 10.5823 37.6223 10.5823C36.6501 10.5823 35.7982 10.7791 35.0677 11.1719C34.3371 11.5657 33.7708 12.1348 33.3677 12.8812C32.9646 13.6277 32.764 14.5336 32.764 15.5982C32.764 16.6628 32.9656 17.578 33.3677 18.3245C33.7698 19.0709 34.3352 19.64 35.063 20.0337C35.7907 20.4265 36.6435 20.6234 37.6223 20.6234C38.601 20.6234 39.325 20.4639 39.9445 20.1448C40.5641 19.8257 41.039 19.4105 41.3702 18.9001C41.7014 18.3888 41.8983 17.8458 41.9599 17.2701V16.9912H39.8979C39.855 17.3252 39.7542 17.6443 39.5965 17.9475L39.5956 17.9485Z"
        fill="#111111" />
    <path
        d="M50.3252 12.0229H50.1395C49.9286 11.6636 49.5806 11.3371 49.0945 11.0432C48.6084 10.7493 47.9385 10.6019 47.0839 10.6019C46.2292 10.6019 45.5341 10.7866 44.8689 11.1542C44.2037 11.5228 43.6756 12.0751 43.2856 12.8122C42.8956 13.5493 42.7006 14.4776 42.7006 15.5991C42.7006 16.7206 42.8956 17.6508 43.2856 18.3907C43.6756 19.1306 44.2037 19.6848 44.8689 20.0533C45.5341 20.4219 46.2731 20.6057 47.0839 20.6057C47.9385 20.6057 48.6084 20.4583 49.0945 20.1644C49.5806 19.8705 49.9286 19.5439 50.1395 19.1847H50.3252V20.4014H52.4431V10.8062H50.3252V12.0229ZM49.5918 18.0884C49.0964 18.6585 48.4433 18.943 47.6316 18.943C46.8198 18.943 46.1574 18.6585 45.662 18.0884C45.1665 17.5183 44.9193 16.6889 44.9193 15.5991C44.9193 14.5094 45.1665 13.6892 45.662 13.1192C46.1574 12.5491 46.8133 12.2645 47.6316 12.2645C48.4498 12.2645 49.0955 12.5491 49.5918 13.1192C50.0873 13.6892 50.3345 14.5159 50.3345 15.5991C50.3345 16.6823 50.0863 17.5193 49.5918 18.0884Z"
        fill="#111111" />
    <path
        d="M63.393 12.8122C63.003 12.0751 62.4749 11.5228 61.8097 11.1542C61.1435 10.7857 60.4055 10.6019 59.5947 10.6019C58.7401 10.6019 58.0711 10.7493 57.5887 11.0432C57.1054 11.3371 56.7556 11.6636 56.5391 12.0229H56.3534V10.8062H54.2355V24H56.4365V19.2957H56.6221C56.8199 19.599 57.1512 19.8929 57.6158 20.1784C58.0804 20.4629 58.7401 20.6057 59.5938 20.6057C60.4475 20.6057 61.1435 20.4209 61.8088 20.0533C62.474 19.6848 63.0021 19.1306 63.3921 18.3907C63.7821 17.6508 63.9771 16.7206 63.9771 15.5991C63.9771 14.4776 63.7821 13.5493 63.3921 12.8122H63.393ZM61.0157 18.0884C60.5203 18.6585 59.8672 18.943 59.0554 18.943C58.2437 18.943 57.5897 18.6585 57.0914 18.0884C56.5932 17.5183 56.3432 16.6889 56.3432 15.5991C56.3432 14.5094 56.5923 13.6892 57.0914 13.1192C57.5897 12.5491 58.2447 12.2645 59.0554 12.2645C59.8662 12.2645 60.5203 12.5491 61.0157 13.1192C61.5111 13.6892 61.7584 14.5159 61.7584 15.5991C61.7584 16.6823 61.5111 17.5193 61.0157 18.0884Z"
        fill="#111111" />
    <path d="M13.235 20.4004H15.436V10.8062H13.235V20.4004Z" fill="#111111" />
    <path
        d="M14.3182 7.19729C13.6549 7.19729 13.1174 7.73471 13.1174 8.39808C13.1174 9.06146 13.6549 9.59887 14.3182 9.59887C14.9816 9.59887 15.519 9.06146 15.519 8.39808C15.519 7.73471 14.9816 7.19729 14.3182 7.19729Z"
        fill="#111111" />
    <path
        d="M66.2248 9.6082H73.4557C74.3393 9.6082 74.914 8.67799 74.5184 7.88865L70.903 0.657771C70.4654 -0.218331 69.2151 -0.218331 68.7766 0.657771L65.1612 7.88865C64.7665 8.67892 65.3403 9.6082 66.2239 9.6082H66.2248Z"
        fill="#00FF00" />
</svg>