<svg width="75" height="24" viewBox="0 0 75 24" fill="none" xmlns="http://www.w3.org/2000/svg">
    <path
        d="M6.22232 17.8001H6.03665L2.30832 7.19729H0.00469971V7.47626L4.84799 20.4004H7.39233L12.2328 7.47626V7.19729H9.94786L6.22232 17.8001Z"
        fill="white" />
    <path
        d="M30.3101 8.39809H28.1371V10.8053H26.3075V12.3196H28.1371V18.0781C28.1371 18.8395 28.3517 19.417 28.7828 19.8108C29.2129 20.2045 29.8156 20.4004 30.5891 20.4004H32.3534V18.8031H31.0995C30.5732 18.8031 30.3101 18.54 30.3101 18.0138V12.3196H32.4094V10.8053H30.3101V8.39809Z"
        fill="white" />
    <path
        d="M21.4791 10.5832C20.0367 10.5832 18.8863 11.0059 18.0288 11.8512C17.1714 12.6965 16.7422 13.9458 16.7422 15.5991C16.7422 17.2524 17.1723 18.5036 18.0335 19.3517C18.8937 20.1998 20.0488 20.6243 21.4978 20.6243C22.2283 20.6243 22.8525 20.5301 23.3694 20.3407C23.8863 20.1522 24.3136 19.9059 24.6514 19.6027C24.9891 19.2994 25.2476 18.9738 25.4267 18.6277C25.6058 18.2806 25.7271 17.9494 25.7887 17.634V17.355H23.8564C23.8126 17.6088 23.7044 17.8663 23.5318 18.1257C23.3582 18.386 23.1044 18.6025 22.7704 18.776C22.4364 18.9496 22.0025 19.0363 21.4698 19.0363C20.6459 19.0363 20.0087 18.7714 19.5562 18.2423C19.1037 17.7133 18.8685 17.0117 18.8499 16.1384H25.9837V15.2184C25.9837 13.776 25.5937 12.6424 24.8137 11.8185C24.0337 10.9947 22.9216 10.5832 21.4791 10.5832ZM18.8779 14.6232C18.9394 13.9113 19.1848 13.3216 19.6121 12.8542C20.0395 12.3867 20.6553 12.1525 21.4605 12.1525C22.2656 12.1525 22.8954 12.383 23.2948 12.8448C23.6941 13.3067 23.8966 13.8991 23.9031 14.6232H18.8779Z"
        fill="white" />
    <path
        d="M39.5955 17.9485C39.4378 18.2517 39.2008 18.5008 38.8845 18.6958C38.5691 18.8908 38.154 18.9888 37.6399 18.9888C36.816 18.9888 36.1676 18.693 35.6936 18.1015C35.2196 17.5099 34.9826 16.6758 34.9826 15.5982C34.9826 14.5205 35.2206 13.6958 35.6983 13.1042C36.175 12.5127 36.8225 12.2169 37.6399 12.2169C38.1418 12.2169 38.5486 12.3112 38.8612 12.5006C39.1737 12.69 39.4079 12.9279 39.5628 13.2162C39.7177 13.5045 39.8101 13.8003 39.8418 14.1035H41.9038V13.8245C41.8478 13.2862 41.6565 12.7693 41.3281 12.2729C40.9997 11.7775 40.5294 11.3716 39.9164 11.0563C39.3034 10.7409 38.5384 10.5823 37.6221 10.5823C36.6499 10.5823 35.7981 10.7791 35.0675 11.1719C34.337 11.5657 33.7706 12.1348 33.3676 12.8812C32.9645 13.6277 32.7639 14.5336 32.7639 15.5982C32.7639 16.6628 32.9654 17.578 33.3676 18.3245C33.7697 19.0709 34.3351 19.64 35.0629 20.0337C35.7906 20.4265 36.6434 20.6234 37.6221 20.6234C38.6009 20.6234 39.3249 20.4639 39.9444 20.1448C40.5639 19.8257 41.0388 19.4105 41.3701 18.9001C41.7013 18.3888 41.8982 17.8458 41.9597 17.2701V16.9912H39.8978C39.8548 17.3252 39.7541 17.6443 39.5964 17.9475L39.5955 17.9485Z"
        fill="white" />
    <path
        d="M50.3252 12.0229H50.1395C49.9286 11.6636 49.5806 11.3371 49.0945 11.0432C48.6084 10.7493 47.9385 10.6019 47.0839 10.6019C46.2292 10.6019 45.5341 10.7866 44.8689 11.1542C44.2037 11.5228 43.6756 12.0751 43.2856 12.8122C42.8956 13.5493 42.7006 14.4776 42.7006 15.5991C42.7006 16.7206 42.8956 17.6508 43.2856 18.3907C43.6756 19.1306 44.2037 19.6848 44.8689 20.0533C45.5341 20.4219 46.2731 20.6057 47.0839 20.6057C47.9385 20.6057 48.6084 20.4583 49.0945 20.1644C49.5806 19.8705 49.9286 19.5439 50.1395 19.1847H50.3252V20.4014H52.4431V10.8062H50.3252V12.0229ZM49.5918 18.0884C49.0964 18.6585 48.4433 18.943 47.6316 18.943C46.8198 18.943 46.1574 18.6585 45.662 18.0884C45.1665 17.5183 44.9193 16.6889 44.9193 15.5991C44.9193 14.5094 45.1665 13.6892 45.662 13.1192C46.1574 12.5491 46.8133 12.2645 47.6316 12.2645C48.4498 12.2645 49.0955 12.5491 49.5918 13.1192C50.0873 13.6892 50.3345 14.5159 50.3345 15.5991C50.3345 16.6823 50.0863 17.5193 49.5918 18.0884Z"
        fill="white" />
    <path
        d="M63.393 12.8122C63.003 12.0751 62.4749 11.5228 61.8097 11.1542C61.1435 10.7857 60.4055 10.6019 59.5947 10.6019C58.7401 10.6019 58.0711 10.7493 57.5887 11.0432C57.1054 11.3371 56.7556 11.6636 56.5391 12.0229H56.3534V10.8062H54.2355V24H56.4365V19.2957H56.6221C56.8199 19.599 57.1512 19.8929 57.6158 20.1784C58.0804 20.4629 58.7401 20.6057 59.5938 20.6057C60.4475 20.6057 61.1435 20.4209 61.8088 20.0533C62.474 19.6848 63.0021 19.1306 63.3921 18.3907C63.7821 17.6508 63.9771 16.7206 63.9771 15.5991C63.9771 14.4776 63.7821 13.5493 63.3921 12.8122H63.393ZM61.0157 18.0884C60.5203 18.6585 59.8672 18.943 59.0554 18.943C58.2437 18.943 57.5897 18.6585 57.0914 18.0884C56.5932 17.5183 56.3432 16.6889 56.3432 15.5991C56.3432 14.5094 56.5923 13.6892 57.0914 13.1192C57.5897 12.5491 58.2447 12.2645 59.0554 12.2645C59.8662 12.2645 60.5203 12.5491 61.0157 13.1192C61.5111 13.6892 61.7584 14.5159 61.7584 15.5991C61.7584 16.6823 61.5111 17.5193 61.0157 18.0884Z"
        fill="white" />
    <path d="M13.2349 20.4004H15.4359V10.8062H13.2349V20.4004Z" fill="white" />
    <path
        d="M14.3181 7.19729C13.6547 7.19729 13.1173 7.73471 13.1173 8.39808C13.1173 9.06146 13.6547 9.59887 14.3181 9.59887C14.9815 9.59887 15.5189 9.06146 15.5189 8.39808C15.5189 7.73471 14.9815 7.19729 14.3181 7.19729Z"
        fill="white" />
    <path
        d="M66.2246 9.6082H73.4555C74.3391 9.6082 74.9138 8.67799 74.5182 7.88865L70.9028 0.657771C70.4652 -0.218331 69.2149 -0.218331 68.7764 0.657771L65.161 7.88865C64.7663 8.67892 65.3401 9.6082 66.2237 9.6082H66.2246Z"
        fill="#00FF00" />
</svg>