<svg width="15" height="15" viewBox="0 0 15 15" fill="none" xmlns="http://www.w3.org/2000/svg">
    <path
        d="M5.66659 4C5.66635 4.93338 5.91107 5.85047 6.3763 6.65965C6.84153 7.46882 7.51096 8.14173 8.31771 8.61114C9.12447 9.08055 10.0403 9.33001 10.9737 9.33461C11.907 9.33921 12.8252 9.09877 13.6366 8.63733C13.3159 12.02 10.4666 14.6667 6.99992 14.6667C3.31792 14.6667 0.333252 11.682 0.333252 8C0.333252 4.53333 2.97992 1.684 6.36259 1.36333C5.90496 2.16663 5.66504 3.0755 5.66659 4ZM1.66659 8C1.66659 9.41449 2.22849 10.771 3.22868 11.7712C4.22888 12.7714 5.58543 13.3333 6.99992 13.3333C7.94224 13.3333 8.86774 13.0837 9.68237 12.6101C10.497 12.1364 11.1717 11.4556 11.6379 10.6367C11.4273 10.6567 11.2139 10.6667 10.9999 10.6667C7.31792 10.6667 4.33325 7.682 4.33325 4C4.33325 3.786 4.34325 3.57333 4.36325 3.362C3.54435 3.82822 2.86347 4.50292 2.38982 5.31755C1.91617 6.13218 1.66664 7.05768 1.66659 8ZM11.1093 1.52733L11.6666 1.66667V2.33333L11.1093 2.47267C10.8749 2.53129 10.6608 2.6525 10.4899 2.82335C10.3191 2.9942 10.1979 3.20827 10.1393 3.44267L9.99992 4H9.33325L9.19392 3.44267C9.1353 3.20827 9.01408 2.9942 8.84323 2.82335C8.67238 2.6525 8.45832 2.53129 8.22392 2.47267L7.66659 2.33333V1.66667L8.22392 1.52733C8.4582 1.46861 8.67212 1.34734 8.84285 1.1765C9.01357 1.00566 9.13469 0.79165 9.19325 0.557333L9.33325 0H9.99992L10.1393 0.557333C10.1979 0.791733 10.3191 1.0058 10.4899 1.17665C10.6608 1.3475 10.8749 1.46871 11.1093 1.52733ZM14.4426 4.86067L14.9999 5V5.66667L14.4426 5.806C14.2082 5.86462 13.9941 5.98584 13.8233 6.15669C13.6524 6.32754 13.5312 6.5416 13.4726 6.776L13.3333 7.33333H12.6666L12.5273 6.776C12.4686 6.5416 12.3474 6.32754 12.1766 6.15669C12.0057 5.98584 11.7917 5.86462 11.5573 5.806L10.9999 5.66667V5L11.5573 4.86067C11.7917 4.80204 12.0057 4.68083 12.1766 4.50998C12.3474 4.33913 12.4686 4.12507 12.5273 3.89067L12.6666 3.33333H13.3333L13.4726 3.89067C13.5312 4.12507 13.6524 4.33913 13.8233 4.50998C13.9941 4.68083 14.2082 4.80204 14.4426 4.86067Z"
        fill="#38383D" />
</svg>