<svg width="16" height="16" viewBox="0 0 16 16" fill="none" xmlns="http://www.w3.org/2000/svg">
    <g clip-path="url(#clip0_1484_156422)">
        <path
            d="M8.00002 12C6.93915 12 5.92174 11.5786 5.17159 10.8284C4.42145 10.0783 4.00002 9.06086 4.00002 8C4.00002 6.93913 4.42145 5.92172 5.17159 5.17157C5.92174 4.42142 6.93915 4 8.00002 4C9.06089 4 10.0783 4.42142 10.8284 5.17157C11.5786 5.92172 12 6.93913 12 8C12 9.06086 11.5786 10.0783 10.8284 10.8284C10.0783 11.5786 9.06089 12 8.00002 12ZM8.00002 10.6667C8.70726 10.6667 9.38554 10.3857 9.88564 9.88562C10.3857 9.38552 10.6667 8.70724 10.6667 8C10.6667 7.29275 10.3857 6.61448 9.88564 6.11438C9.38554 5.61428 8.70726 5.33333 8.00002 5.33333C7.29278 5.33333 6.6145 5.61428 6.1144 6.11438C5.61431 6.61448 5.33335 7.29275 5.33335 8C5.33335 8.70724 5.61431 9.38552 6.1144 9.88562C6.6145 10.3857 7.29278 10.6667 8.00002 10.6667ZM7.33335 0.666664H8.66669V2.66666H7.33335V0.666664ZM7.33335 13.3333H8.66669V15.3333H7.33335V13.3333ZM2.34335 3.286L3.28602 2.34333L4.70002 3.75733L3.75735 4.7L2.34335 3.286ZM11.3 12.2427L12.2427 11.3L13.6567 12.714L12.714 13.6567L11.3 12.2427ZM12.714 2.34266L13.6567 3.286L12.2427 4.7L11.3 3.75733L12.714 2.34333V2.34266ZM3.75735 11.3L4.70002 12.2427L3.28602 13.6567L2.34335 12.714L3.75735 11.3ZM15.3334 7.33333V8.66666H13.3334V7.33333H15.3334ZM2.66669 7.33333V8.66666H0.666687V7.33333H2.66669Z"
            fill="#EBEBF0" />
    </g>
    <defs>
        <clipPath id="clip0_1484_156422">
            <rect width="16" height="16" fill="white" />
        </clipPath>
    </defs>
</svg>