<svg width="14" height="14" viewBox="0 0 14 14" fill="none" xmlns="http://www.w3.org/2000/svg">
    <g clip-path="url(#clip0_3189_1497)">
        <path
            d="M7.12076 0L0.966003 1.75615V4.84173C0.966003 8.80537 3.32123 12.3752 6.95664 13.9343L7.12076 14L7.28488 13.9343C10.9203 12.3752 13.2755 8.80537 13.2755 4.84173V1.75615L7.12076 0Z"
            fill="#E7E7E7" />
        <path d="M13.2755 1.75615V4.84173C13.2755 8.80537 10.9203 12.3752 7.28486 13.9343L7.12074 14V0L13.2755 1.75615Z"
            fill="#D3D3D8" />
        <path
            d="M7.12075 1.70691L2.60728 2.99532V4.84174C2.60728 7.87804 4.265 10.6518 6.92382 12.0961L7.12078 12.2028L7.31773 12.0961C9.97658 10.6518 11.6343 7.87807 11.6343 4.84174V2.99532L7.12075 1.70691Z"
            fill="#00B71F" />
        <path
            d="M11.6342 2.99532V4.84174C11.6342 7.87804 9.9765 10.6518 7.31767 12.0961L7.12074 12.2028V1.70691L11.6342 2.99532Z"
            fill="#009326" />
    </g>
    <defs>
        <clipPath id="clip0_3189_1497">
            <rect width="14" height="14" fill="white" />
        </clipPath>
    </defs>
</svg>