<svg width="12" height="12" viewBox="0 0 12 12" fill="none" xmlns="http://www.w3.org/2000/svg">
    <g clip-path="url(#clip0_3093_2436)">
        <path fill-rule="evenodd" clip-rule="evenodd"
            d="M0.75 9H8.25C8.66475 9 9 8.66475 9 8.25V0.75C9 0.336 8.66475 0 8.25 0H0.75C0.33525 0 0 0.336 0 0.75V8.25C0 8.66475 0.33525 9 0.75 9ZM5.3283 3.59569L6.86643 3.81928H6.86658C6.89542 3.82347 6.92252 3.83564 6.94481 3.85442C6.96709 3.8732 6.98368 3.89784 6.9927 3.92555C7.00172 3.95326 7.00281 3.98294 6.99585 4.01124C6.98889 4.03954 6.97415 4.06533 6.9533 4.08569L5.83987 5.17194L6.10268 6.70319C6.10746 6.73188 6.10414 6.76133 6.0931 6.78823C6.08205 6.81514 6.06372 6.83843 6.04016 6.85548C6.0166 6.87253 5.98874 6.88266 5.95973 6.88474C5.93073 6.88682 5.90171 6.88077 5.87596 6.86725L4.50018 6.14397L3.1244 6.86725C3.09864 6.88077 3.06963 6.88682 3.04062 6.88474C3.01161 6.88266 2.98376 6.87253 2.9602 6.85548C2.93664 6.83843 2.9183 6.81514 2.90726 6.78823C2.89621 6.76133 2.89289 6.73188 2.89768 6.70319L3.16018 5.17069L2.04705 4.08569C2.0262 4.06532 2.01147 4.03952 2.00451 4.01121C1.99756 3.9829 1.99866 3.9532 2.0077 3.92549C2.01674 3.89777 2.03335 3.87314 2.05566 3.85437C2.07796 3.8356 2.10507 3.82345 2.13393 3.81928L3.67299 3.59569L4.36049 2.20194C4.37486 2.17754 4.39535 2.15732 4.41993 2.14327C4.44451 2.12922 4.47233 2.12183 4.50065 2.12183C4.52896 2.12183 4.55678 2.12922 4.58137 2.14327C4.60595 2.15732 4.62643 2.17754 4.6408 2.20194L5.3283 3.59569Z"
            fill="#A6A6B0" />
        <path d="M11.25 12H3V10.5H10.5V3H12V11.25C12 11.6648 11.6648 12 11.25 12Z" fill="#A6A6B0" />
    </g>
    <defs>
        <clipPath id="clip0_3093_2436">
            <rect width="12" height="12" fill="white" />
        </clipPath>
    </defs>
</svg>