<svg width="700" height="771" viewBox="0 0 700 771" fill="none" xmlns="http://www.w3.org/2000/svg">
    <g opacity="0.4">
        <mask id="mask0_2211_97123" style="mask-type:alpha" maskUnits="userSpaceOnUse" x="0" y="0" width="700"
            height="771">
            <rect width="700" height="771" fill="#C4C4C4" />
        </mask>
        <g mask="url(#mask0_2211_97123)">
            <g opacity="0.6">
                <path d="M221.654 -78.2129L-290.932 770.44H-2.44531L510.125 -78.2129H221.654Z"
                    fill="url(#paint0_linear_2211_97123)" />
                <path
                    d="M383.597 -162.023L242.17 72.1425C240.294 75.2763 239.281 78.8508 239.234 82.5028C239.187 86.1548 240.107 89.7543 241.901 92.9356C243.695 96.1169 246.299 98.7667 249.449 100.616C252.599 102.465 256.181 103.448 259.834 103.464H603.883C607.447 103.472 610.953 102.558 614.06 100.813C617.168 99.0675 619.772 96.549 621.621 93.5014L763.063 -140.678C764.942 -143.818 765.955 -147.399 765.999 -151.057C766.043 -154.715 765.116 -158.32 763.313 -161.504C761.51 -164.687 758.896 -167.336 755.736 -169.18C752.576 -171.024 748.984 -171.997 745.325 -172H401.276C397.72 -171.996 394.226 -171.076 391.129 -169.328C388.033 -167.58 385.439 -165.064 383.597 -162.023Z"
                    fill="url(#paint1_linear_2211_97123)" />
                <path d="M50.2646 -48.7092L-336 590.803H1.56021L387.825 -48.7092H50.2646Z"
                    fill="url(#paint2_linear_2211_97123)" />
                <path
                    d="M72.9387 300.691L-66.3749 531.279C-66.8072 531.994 -67.0416 532.811 -67.0542 533.647C-67.0667 534.482 -66.857 535.306 -66.4464 536.034C-66.0359 536.762 -65.4392 537.368 -64.7176 537.789C-63.996 538.211 -63.1753 538.433 -62.3396 538.433H-35.4968C-34.684 538.43 -33.8857 538.218 -33.1789 537.816C-32.4721 537.415 -31.8806 536.838 -31.4615 536.142L107.837 305.554C108.27 304.839 108.504 304.021 108.516 303.186C108.529 302.35 108.319 301.526 107.909 300.798C107.498 300.07 106.902 299.465 106.18 299.043C105.458 298.622 104.638 298.4 103.802 298.4H76.9592C76.1486 298.404 75.3528 298.617 74.6485 299.018C73.9443 299.419 73.3554 299.995 72.9387 300.691Z"
                    fill="url(#paint3_linear_2211_97123)" />
                <path
                    d="M72.9387 300.691L-66.3749 531.279C-66.8072 531.994 -67.0416 532.811 -67.0542 533.647C-67.0667 534.482 -66.857 535.306 -66.4464 536.034C-66.0359 536.762 -65.4392 537.368 -64.7176 537.789C-63.996 538.211 -63.1753 538.433 -62.3396 538.433H-35.4968C-34.684 538.43 -33.8857 538.218 -33.1789 537.816C-32.4721 537.415 -31.8806 536.838 -31.4615 536.142L107.837 305.554C108.27 304.839 108.504 304.021 108.516 303.186C108.529 302.35 108.319 301.526 107.909 300.798C107.498 300.07 106.902 299.465 106.18 299.043C105.458 298.622 104.638 298.4 103.802 298.4H76.9592C76.1486 298.404 75.3528 298.617 74.6485 299.018C73.9443 299.419 73.3554 299.995 72.9387 300.691Z"
                    stroke="url(#paint4_linear_2211_97123)" stroke-width="1.78" stroke-miterlimit="10" />
                <path
                    d="M-99.1002 337.348H110.986C113.496 337.35 115.963 336.703 118.149 335.47C120.335 334.238 122.165 332.461 123.462 330.312L202.423 199.587C203.77 197.374 204.502 194.842 204.547 192.252C204.591 189.662 203.944 187.107 202.674 184.85C201.404 182.592 199.556 180.714 197.319 179.407C195.082 178.1 192.538 177.413 189.948 177.415H-20.183C-22.6919 177.416 -25.1581 178.064 -27.3435 179.296C-29.5288 180.529 -31.3594 182.304 -32.6584 184.451L-111.62 315.191C-112.969 317.406 -113.703 319.941 -113.746 322.535C-113.789 325.128 -113.138 327.686 -111.863 329.944C-110.587 332.202 -108.731 334.079 -106.488 335.38C-104.244 336.682 -101.694 337.361 -99.1002 337.348Z"
                    fill="url(#paint5_linear_2211_97123)" />
                <path
                    d="M-99.1002 337.348H110.986C113.496 337.35 115.963 336.703 118.149 335.47C120.335 334.238 122.165 332.461 123.462 330.312L202.423 199.587C203.77 197.374 204.502 194.842 204.547 192.252C204.591 189.662 203.944 187.107 202.674 184.85C201.404 182.592 199.556 180.714 197.319 179.407C195.082 178.1 192.538 177.413 189.948 177.415H-20.183C-22.6919 177.416 -25.1581 178.064 -27.3435 179.296C-29.5288 180.529 -31.3594 182.304 -32.6584 184.451L-111.62 315.191C-112.969 317.406 -113.703 319.941 -113.746 322.535C-113.789 325.128 -113.138 327.686 -111.863 329.944C-110.587 332.202 -108.731 334.079 -106.488 335.38C-104.244 336.682 -101.694 337.361 -99.1002 337.348Z"
                    stroke="url(#paint6_linear_2211_97123)" stroke-width="1.78" stroke-miterlimit="10" />
                <path
                    d="M-76.1004 487.659L147.215 117.935C147.99 116.651 148.41 115.184 148.432 113.684C148.454 112.185 148.077 110.706 147.341 109.4C146.604 108.093 145.534 107.006 144.239 106.249C142.945 105.491 141.472 105.092 139.972 105.09H98.7917C97.3336 105.09 95.9002 105.466 94.6292 106.18C93.3581 106.895 92.2923 107.924 91.5341 109.17L-131.767 478.894C-132.542 480.178 -132.961 481.645 -132.983 483.145C-133.006 484.644 -132.629 486.123 -131.892 487.429C-131.156 488.736 -130.085 489.823 -128.791 490.58C-127.496 491.337 -126.024 491.737 -124.524 491.739H-83.3433C-81.8863 491.743 -80.4531 491.369 -79.1837 490.654C-77.9143 489.939 -76.8519 488.907 -76.1004 487.659Z"
                    fill="url(#paint7_linear_2211_97123)" />
                <path
                    d="M-76.1004 487.659L147.215 117.935C147.99 116.651 148.41 115.184 148.432 113.684C148.454 112.185 148.077 110.706 147.341 109.4C146.604 108.093 145.534 107.006 144.239 106.249C142.945 105.491 141.472 105.092 139.972 105.09H98.7917C97.3336 105.09 95.9002 105.466 94.6292 106.18C93.3581 106.895 92.2923 107.924 91.5341 109.17L-131.767 478.894C-132.542 480.178 -132.961 481.645 -132.983 483.144C-133.006 484.644 -132.629 486.123 -131.892 487.429C-131.156 488.736 -130.085 489.823 -128.791 490.58C-127.496 491.337 -126.024 491.737 -124.524 491.739H-83.3433C-81.8863 491.743 -80.4531 491.369 -79.1837 490.654C-77.9143 489.939 -76.8519 488.907 -76.1004 487.659V487.659Z"
                    stroke="url(#paint8_linear_2211_97123)" stroke-width="1.78" stroke-miterlimit="10" />
                <g style="mix-blend-mode:overlay">
                    <g style="mix-blend-mode:overlay">
                        <path d="M-40.7295 346.114L82.0291 142.871" stroke="#C4C4CE" stroke-width="1.13"
                            stroke-miterlimit="10" />
                    </g>
                    <g style="mix-blend-mode:overlay">
                        <path d="M-30.708 346.114L92.0358 142.871" stroke="#C4C4CE" stroke-width="1.13"
                            stroke-miterlimit="10" />
                    </g>
                    <g style="mix-blend-mode:overlay">
                        <path d="M-20.7012 346.114L102.057 142.871" stroke="#C4C4CE" stroke-width="1.13"
                            stroke-miterlimit="10" />
                    </g>
                    <g style="mix-blend-mode:overlay">
                        <path d="M-10.6943 346.114L112.064 142.871" stroke="#C4C4CE" stroke-width="1.13"
                            stroke-miterlimit="10" />
                    </g>
                    <g style="mix-blend-mode:overlay">
                        <path d="M-0.686523 346.114L122.072 142.871" stroke="#C4C4CE" stroke-width="1.13"
                            stroke-miterlimit="10" />
                    </g>
                </g>
                <path
                    d="M-28.0615 -13.7221L-110.984 123.507C-112.697 126.346 -113.625 129.589 -113.673 132.904C-113.721 136.219 -112.887 139.487 -111.257 142.374C-109.627 145.262 -107.259 147.664 -104.396 149.335C-101.533 151.007 -98.277 151.887 -94.9616 151.887H278.606C281.828 151.9 284.998 151.081 287.81 149.509C290.622 147.937 292.981 145.666 294.658 142.915L335.307 75.6013C336.974 72.8437 339.325 70.5634 342.132 68.9811C344.939 67.3989 348.107 66.5683 351.33 66.5699H571.29C574.514 66.5697 577.684 65.7385 580.493 64.1565C583.302 62.5746 585.656 60.2953 587.328 57.5385L618.664 5.62665C620.377 2.78788 621.305 -0.454945 621.352 -3.77001C621.4 -7.08507 620.567 -10.3533 618.937 -13.2404C617.307 -16.1275 614.939 -18.5296 612.076 -20.2011C609.212 -21.8726 605.957 -22.7534 602.641 -22.7534H-12.0386C-15.2601 -22.7507 -18.4266 -21.9183 -21.233 -20.3364C-24.0394 -18.7546 -26.3911 -16.4767 -28.0615 -13.7221Z"
                    fill="url(#paint9_linear_2211_97123)" />
                <path
                    d="M-28.0615 -13.7221L-110.984 123.507C-112.697 126.346 -113.625 129.589 -113.673 132.904C-113.721 136.219 -112.887 139.487 -111.257 142.374C-109.627 145.262 -107.259 147.664 -104.396 149.335C-101.533 151.007 -98.277 151.887 -94.9616 151.887H278.606C281.828 151.9 284.998 151.081 287.81 149.509C290.622 147.937 292.981 145.666 294.658 142.915L335.307 75.6013C336.974 72.8437 339.325 70.5634 342.132 68.9811C344.939 67.3989 348.107 66.5683 351.33 66.5699H571.29C574.514 66.5697 577.684 65.7385 580.493 64.1565C583.302 62.5746 585.656 60.2953 587.328 57.5385L618.664 5.62665C620.377 2.78788 621.305 -0.454944 621.352 -3.77001C621.4 -7.08507 620.567 -10.3533 618.937 -13.2404C617.307 -16.1275 614.939 -18.5296 612.076 -20.2011C609.212 -21.8726 605.957 -22.7534 602.641 -22.7534H-12.0386C-15.2601 -22.7507 -18.4266 -21.9183 -21.233 -20.3364C-24.0394 -18.7546 -26.3911 -16.4767 -28.0615 -13.7221V-13.7221Z"
                    stroke="url(#paint10_linear_2211_97123)" stroke-width="1.78" stroke-miterlimit="10" />
            </g>
        </g>
    </g>
    <defs>
        <linearGradient id="paint0_linear_2211_97123" x1="-190.552" y1="846.371" x2="263.973" y2="88.8156"
            gradientUnits="userSpaceOnUse">
            <stop stop-color="#DBDBDB" />
            <stop offset="0.4" stop-color="#D1D5DB" />
            <stop offset="0.74" stop-color="#CED0D2" />
            <stop offset="1" stop-color="#EBEEF1" />
        </linearGradient>
        <linearGradient id="paint1_linear_2211_97123" x1="252.118" y1="-3.02037" x2="912.605" y2="-85.4261"
            gradientUnits="userSpaceOnUse">
            <stop stop-color="white" />
            <stop offset="0.26" stop-color="#EAEAEA" />
            <stop offset="0.6" stop-color="#D8D8D8" />
            <stop offset="1" stop-color="#C4C4C4" />
        </linearGradient>
        <linearGradient id="paint2_linear_2211_97123" x1="58156.3" y1="366469" x2="207161" y2="85386.5"
            gradientUnits="userSpaceOnUse">
            <stop stop-color="#F0F0F0" />
            <stop offset="0.4" stop-color="#FDFDFD" />
            <stop offset="0.74" stop-color="#E7E9EC" />
            <stop offset="1" stop-color="#D9D9D9" />
        </linearGradient>
        <linearGradient id="paint3_linear_2211_97123" x1="101.792" y1="282.82" x2="-50.8398" y2="538.167"
            gradientUnits="userSpaceOnUse">
            <stop stop-color="white" />
            <stop offset="0.26" stop-color="#EBEBEB" />
            <stop offset="0.6" stop-color="#DADADA" />
            <stop offset="1" stop-color="#C3C3C3" />
        </linearGradient>
        <linearGradient id="paint4_linear_2211_97123" x1="96.4705" y1="291.719" x2="-55.0377" y2="545.173"
            gradientUnits="userSpaceOnUse">
            <stop stop-color="#F8F8F8" />
            <stop offset="0.54" stop-color="#E5E5E5" />
            <stop offset="1" stop-color="#CECECE" />
        </linearGradient>
        <linearGradient id="paint5_linear_2211_97123" x1="-59.309" y1="257.411" x2="258.947" y2="257.411"
            gradientUnits="userSpaceOnUse">
            <stop stop-color="white" />
            <stop offset="0.32" stop-color="#DEE4E9" />
            <stop offset="0.91" stop-color="#D2D6DB" />
            <stop offset="1" stop-color="#CED1D4" />
        </linearGradient>
        <linearGradient id="paint6_linear_2211_97123" x1="-115.02" y1="257.411" x2="205.867" y2="257.411"
            gradientUnits="userSpaceOnUse">
            <stop stop-color="white" />
            <stop offset="0.47" stop-color="#E8E8E8" />
            <stop offset="1" stop-color="#D5D5D5" />
        </linearGradient>
        <linearGradient id="paint7_linear_2211_97123" x1="24614.8" y1="6538.93" x2="-45175.8" y2="89187.2"
            gradientUnits="userSpaceOnUse">
            <stop stop-color="white" />
            <stop offset="0.26" stop-color="#EDEEF0" />
            <stop offset="0.6" stop-color="#DEDEDE" />
            <stop offset="1" stop-color="#D1D1D1" />
        </linearGradient>
        <linearGradient id="paint8_linear_2211_97123" x1="131.577" y1="96.9011" x2="-116.143" y2="499.928"
            gradientUnits="userSpaceOnUse">
            <stop stop-color="white" />
            <stop offset="0.13" stop-color="#E3E4E6" />
            <stop offset="0.61" stop-color="#D4D4D4" />
        </linearGradient>
        <linearGradient id="paint9_linear_2211_97123" x1="41.7357" y1="64.5892" x2="776.824" y2="64.5892"
            gradientUnits="userSpaceOnUse">
            <stop stop-color="white" />
            <stop offset="1" stop-color="#D0D0D0" />
        </linearGradient>
        <linearGradient id="paint10_linear_2211_97123" x1="-115.02" y1="64.5892" x2="622.699" y2="64.5892"
            gradientUnits="userSpaceOnUse">
            <stop stop-color="white" />
            <stop offset="0.81" stop-color="#BFC3CA" />
            <stop offset="1" stop-color="#D8E1EB" />
        </linearGradient>
    </defs>
</svg>