<svg width="16" height="16" viewBox="0 0 16 16" fill="none" xmlns="http://www.w3.org/2000/svg">
    <g clip-path="url(#clip0_1467_103995)">
        <path
            d="M1.33398 8.00004C1.33398 7.42337 1.40732 6.86471 1.54465 6.33071C1.91296 6.35007 2.27945 6.26721 2.60361 6.09129C2.92777 5.91536 3.19697 5.65323 3.38146 5.33387C3.56594 5.01451 3.65852 4.65035 3.64897 4.28165C3.63941 3.91296 3.52809 3.55409 3.32732 3.24471C4.13328 2.45175 5.12785 1.87704 6.21732 1.57471C6.38464 1.90369 6.63974 2.17995 6.95437 2.37291C7.269 2.56588 7.63089 2.66801 7.99998 2.66801C8.36907 2.66801 8.73097 2.56588 9.0456 2.37291C9.36023 2.17995 9.61532 1.90369 9.78265 1.57471C10.8721 1.87704 11.8667 2.45175 12.6727 3.24471C12.4716 3.55414 12.3602 3.91315 12.3505 4.28202C12.3409 4.65088 12.4335 5.01522 12.6181 5.33471C12.8027 5.65421 13.0721 5.91642 13.3964 6.09232C13.7208 6.26822 14.0875 6.35095 14.456 6.33137C14.5933 6.86471 14.6667 7.42337 14.6667 8.00004C14.6667 8.57671 14.5933 9.13537 14.456 9.66937C14.0876 9.64988 13.721 9.73265 13.3968 9.90851C13.0725 10.0844 12.8032 10.3465 12.6187 10.6659C12.4341 10.9853 12.3414 11.3495 12.351 11.7182C12.3605 12.087 12.4718 12.4459 12.6727 12.7554C11.8667 13.5483 10.8721 14.123 9.78265 14.4254C9.61532 14.0964 9.36023 13.8201 9.0456 13.6272C8.73097 13.4342 8.36907 13.3321 7.99998 13.3321C7.63089 13.3321 7.269 13.4342 6.95437 13.6272C6.63974 13.8201 6.38464 14.0964 6.21732 14.4254C5.12785 14.123 4.13328 13.5483 3.32732 12.7554C3.52832 12.4459 3.6398 12.0869 3.64943 11.7181C3.65906 11.3492 3.56645 10.9849 3.38186 10.6654C3.19727 10.3459 2.92789 10.0837 2.60352 9.90776C2.27916 9.73186 1.91245 9.64913 1.54398 9.66871C1.40732 9.13604 1.33398 8.57737 1.33398 8.00004ZM4.53665 10C4.95665 10.7274 5.07665 11.564 4.91265 12.3494C5.18465 12.5427 5.47398 12.71 5.77732 12.8494C6.38843 12.3019 7.18019 11.9995 8.00065 12C8.84065 12 9.62598 12.314 10.224 12.8494C10.5273 12.71 10.8167 12.5427 11.0887 12.3494C10.9203 11.5467 11.0542 10.7101 11.4647 10C11.8744 9.28962 12.532 8.75548 13.3113 8.50004C13.3421 8.16742 13.3421 7.83266 13.3113 7.50004C12.5317 7.24475 11.8739 6.71059 11.464 6.00004C11.0535 5.28999 10.9196 4.4534 11.088 3.65071C10.8161 3.45732 10.5266 3.28992 10.2233 3.15071C9.61238 3.698 8.82088 4.00045 8.00065 4.00004C7.18019 4.00061 6.38843 3.69815 5.77732 3.15071C5.47407 3.28992 5.18458 3.45733 4.91265 3.65071C5.08103 4.4534 4.94713 5.28999 4.53665 6.00004C4.1269 6.71046 3.46931 7.2446 2.68998 7.50004C2.65915 7.83266 2.65915 8.16742 2.68998 8.50004C3.46955 8.75533 4.1274 9.28949 4.53732 10H4.53665ZM8.00065 10C7.47022 10 6.96151 9.78933 6.58644 9.41425C6.21136 9.03918 6.00065 8.53047 6.00065 8.00004C6.00065 7.46961 6.21136 6.9609 6.58644 6.58583C6.96151 6.21075 7.47022 6.00004 8.00065 6.00004C8.53108 6.00004 9.03979 6.21075 9.41487 6.58583C9.78994 6.9609 10.0007 7.46961 10.0007 8.00004C10.0007 8.53047 9.78994 9.03918 9.41487 9.41425C9.03979 9.78933 8.53108 10 8.00065 10ZM8.00065 8.66671C8.17746 8.66671 8.34703 8.59647 8.47206 8.47144C8.59708 8.34642 8.66732 8.17685 8.66732 8.00004C8.66732 7.82323 8.59708 7.65366 8.47206 7.52864C8.34703 7.40361 8.17746 7.33337 8.00065 7.33337C7.82384 7.33337 7.65427 7.40361 7.52925 7.52864C7.40422 7.65366 7.33398 7.82323 7.33398 8.00004C7.33398 8.17685 7.40422 8.34642 7.52925 8.47144C7.65427 8.59647 7.82384 8.66671 8.00065 8.66671Z"
            fill="#808089" />
    </g>
    <defs>
        <clipPath id="clip0_1467_103995">
            <rect width="16" height="16" fill="white" />
        </clipPath>
    </defs>
</svg>