<svg width="16" height="16" viewBox="0 0 16 16" fill="none" xmlns="http://www.w3.org/2000/svg">
    <g clip-path="url(#clip0_1467_103998)">
        <path
            d="M12.918 8.27722L5.85198 12.9879C5.80179 13.0213 5.74347 13.0404 5.68325 13.0433C5.62302 13.0462 5.56314 13.0327 5.50998 13.0042C5.45683 12.9758 5.41239 12.9334 5.38139 12.8817C5.3504 12.83 5.33402 12.7708 5.33398 12.7105V3.28922C5.33402 3.22892 5.3504 3.16976 5.38139 3.11804C5.41239 3.06633 5.45683 3.02398 5.50998 2.99552C5.56314 2.96706 5.62302 2.95355 5.68325 2.95644C5.74347 2.95932 5.80179 2.97848 5.85198 3.01188L12.918 7.72255C12.9636 7.75299 13.0011 7.79423 13.027 7.84261C13.0528 7.89099 13.0664 7.94501 13.0664 7.99988C13.0664 8.05475 13.0528 8.10878 13.027 8.15715C13.0011 8.20553 12.9636 8.24678 12.918 8.27722Z"
            fill="#808089" />
    </g>
    <defs>
        <clipPath id="clip0_1467_103998">
            <rect width="16" height="16" fill="white" />
        </clipPath>
    </defs>
</svg>