<svg width="156" height="32" viewBox="0 0 156 32" fill="none" xmlns="http://www.w3.org/2000/svg">
<path d="M117.013 14.4533V14.1719L117.269 14.0952C117.431 14.0441 117.541 13.9631 117.601 13.8522C117.661 13.7329 117.691 13.5794 117.691 13.3918V7.06146C117.691 6.89094 117.669 6.75453 117.627 6.65222C117.584 6.54139 117.477 6.45613 117.307 6.39645L117.013 6.28135V6H119.455L121.86 12.2536L124.123 6H126.617V6.28135L126.412 6.34529C126.25 6.39645 126.14 6.47744 126.08 6.58828C126.02 6.69059 125.99 6.827 125.99 6.99751C125.982 7.49201 125.978 7.9865 125.978 8.48099C125.978 8.96696 125.978 9.46146 125.978 9.96448V10.4888C125.978 10.9833 125.978 11.4778 125.978 11.9723C125.978 12.4668 125.982 12.957 125.99 13.443C125.99 13.622 126.012 13.7584 126.054 13.8522C126.097 13.946 126.199 14.0227 126.361 14.0824L126.617 14.1719V14.4533H123.509V14.1719L123.791 14.0824C123.953 14.0227 124.051 13.946 124.085 13.8522C124.128 13.7499 124.149 13.6135 124.149 13.443V10.6679L124.174 7.2405L121.566 14.4533H120.849L118.1 7.31723L118.151 10.233V13.4046C118.151 13.5922 118.177 13.7414 118.228 13.8522C118.279 13.9631 118.385 14.0398 118.547 14.0824L118.803 14.1719V14.4533H117.013Z" fill="white"/>
<path d="M128.783 14.6323C128.297 14.6323 127.884 14.4959 127.543 14.2231C127.21 13.9417 127.044 13.541 127.044 13.021C127.044 12.6117 127.24 12.2366 127.632 11.8956C128.033 11.546 128.66 11.2902 129.512 11.1282C129.657 11.0941 129.823 11.0643 130.011 11.0387C130.207 11.0046 130.399 10.9705 130.587 10.9364V10.0284C130.587 9.44867 130.514 9.04796 130.369 8.82629C130.224 8.60462 129.994 8.49378 129.679 8.49378H129.64C129.444 8.49378 129.286 8.55773 129.167 8.68561C129.056 8.80497 128.984 9.00533 128.95 9.28668L128.911 9.45293C128.886 9.79396 128.796 10.0455 128.643 10.2075C128.489 10.3609 128.297 10.4377 128.067 10.4377C127.854 10.4377 127.675 10.3737 127.53 10.2458C127.394 10.1094 127.325 9.93464 127.325 9.72149C127.325 9.37194 127.445 9.0778 127.684 8.83908C127.922 8.60036 128.238 8.42131 128.63 8.30195C129.031 8.18259 129.461 8.12291 129.922 8.12291C130.68 8.12291 131.26 8.30622 131.661 8.67282C132.061 9.03943 132.262 9.63623 132.262 10.4632V13.3151C132.262 13.6817 132.437 13.865 132.786 13.865H133.08L133.208 14.0057C133.055 14.2018 132.884 14.351 132.697 14.4533C132.509 14.5641 132.253 14.6195 131.929 14.6195C131.563 14.6195 131.269 14.5343 131.047 14.3638C130.834 14.1847 130.693 13.9503 130.625 13.6604C130.352 13.9503 130.084 14.1847 129.819 14.3638C129.555 14.5428 129.21 14.6323 128.783 14.6323ZM129.525 13.8139C129.696 13.8139 129.858 13.7755 130.011 13.6988C130.164 13.622 130.356 13.4941 130.587 13.3151V11.2689C130.365 11.303 130.139 11.3456 129.909 11.3968C129.542 11.4821 129.244 11.6398 129.014 11.87C128.792 12.1002 128.681 12.4114 128.681 12.8036C128.681 13.1446 128.758 13.4004 128.911 13.5709C129.073 13.7329 129.278 13.8139 129.525 13.8139Z" fill="white"/>
<path d="M135.711 14.6323C135.301 14.6323 134.93 14.5854 134.598 14.4917C134.274 14.4064 133.963 14.2828 133.664 14.1208V12.6117H134.01L134.393 13.3407C134.555 13.6561 134.739 13.8906 134.943 14.0441C135.156 14.1975 135.425 14.2742 135.749 14.2742C136.15 14.2742 136.469 14.189 136.708 14.0185C136.947 13.8394 137.066 13.6007 137.066 13.3023C137.066 13.0295 136.977 12.8078 136.798 12.6373C136.619 12.4668 136.299 12.3091 135.838 12.1641L135.276 11.9851C134.773 11.8316 134.372 11.6014 134.074 11.2945C133.784 10.979 133.639 10.5869 133.639 10.1179C133.639 9.75133 133.737 9.41883 133.933 9.12043C134.129 8.8135 134.415 8.57052 134.79 8.39147C135.165 8.21243 135.621 8.12291 136.158 8.12291C136.508 8.12291 136.827 8.16554 137.117 8.2508C137.416 8.32753 137.706 8.43837 137.987 8.5833L137.91 9.95169H137.578L137.181 9.22274C137.045 8.94991 136.904 8.76234 136.759 8.66004C136.623 8.5492 136.41 8.49378 136.12 8.49378C135.813 8.49378 135.54 8.57478 135.301 8.73677C135.071 8.89023 134.956 9.10764 134.956 9.38899C134.956 9.65329 135.054 9.87069 135.25 10.0412C135.446 10.2032 135.762 10.3567 136.197 10.5016L136.746 10.6679C137.369 10.8639 137.812 11.124 138.076 11.448C138.341 11.7719 138.473 12.1599 138.473 12.6117C138.473 13.2171 138.23 13.7073 137.744 14.0824C137.267 14.449 136.589 14.6323 135.711 14.6323Z" fill="white"/>
<path d="M141.46 14.6323C140.931 14.6323 140.514 14.5044 140.207 14.2487C139.908 13.9844 139.759 13.5581 139.759 12.9698C139.759 12.7652 139.759 12.5734 139.759 12.3943C139.768 12.2067 139.772 11.9893 139.772 11.7421V8.71119H138.864V8.42984L139.209 8.37869C139.456 8.33606 139.665 8.25932 139.836 8.14849C140.015 8.03766 140.177 7.88419 140.322 7.6881L141.153 6.53712H141.537L141.498 8.31474H142.956V8.71119H141.486V13.0721C141.486 13.379 141.549 13.6092 141.677 13.7627C141.814 13.9162 141.98 13.9929 142.176 13.9929C142.347 13.9929 142.5 13.9545 142.637 13.8778C142.773 13.7925 142.909 13.6817 143.046 13.5453L143.212 13.7371C143.05 14.0185 142.824 14.2401 142.534 14.4021C142.244 14.5556 141.886 14.6323 141.46 14.6323Z" fill="white"/>
<path d="M146.811 8.12291C147.348 8.12291 147.809 8.23375 148.192 8.45542C148.576 8.67709 148.87 8.98401 149.075 9.3762C149.288 9.75986 149.395 10.2032 149.395 10.7062C149.395 10.8171 149.39 10.9236 149.382 11.0259C149.373 11.1197 149.356 11.2092 149.331 11.2945H145.481C145.49 12.1726 145.652 12.8036 145.967 13.1872C146.291 13.5709 146.76 13.7627 147.374 13.7627C147.8 13.7627 148.146 13.6945 148.41 13.5581C148.674 13.4131 148.917 13.2128 149.139 12.957L149.343 13.1488C149.088 13.6178 148.738 13.9844 148.295 14.2487C147.86 14.5044 147.34 14.6323 146.735 14.6323C146.129 14.6323 145.596 14.5044 145.136 14.2487C144.676 13.9929 144.313 13.6263 144.049 13.1488C143.793 12.6629 143.665 12.0831 143.665 11.4096C143.665 10.7105 143.814 10.1179 144.113 9.63197C144.42 9.146 144.812 8.77513 145.289 8.51936C145.775 8.25506 146.283 8.12291 146.811 8.12291ZM146.747 8.49378C146.5 8.49378 146.283 8.56625 146.095 8.71119C145.916 8.8476 145.771 9.09485 145.66 9.45293C145.558 9.80249 145.498 10.297 145.481 10.9364H147.77C147.864 10.0753 147.83 9.45293 147.668 9.06927C147.506 8.68561 147.199 8.49378 146.747 8.49378Z" fill="white"/>
<path d="M150.046 14.4533V14.2103L150.238 14.1464C150.408 14.1037 150.523 14.0313 150.583 13.929C150.651 13.8266 150.685 13.6902 150.685 13.5197V9.77265C150.677 9.58508 150.643 9.44441 150.583 9.35062C150.523 9.24831 150.408 9.18011 150.238 9.146L150.046 9.09485V8.86465L152.13 8.12291L152.284 8.26359L152.399 9.38899V9.47851C152.527 9.23979 152.689 9.01812 152.885 8.8135C153.081 8.60888 153.294 8.44263 153.524 8.31474C153.755 8.18686 153.985 8.12291 154.215 8.12291C154.539 8.12291 154.782 8.20817 154.944 8.37869C155.106 8.5492 155.187 8.76661 155.187 9.03091C155.187 9.32078 155.106 9.54245 154.944 9.69591C154.782 9.84085 154.586 9.91332 154.356 9.91332C154.015 9.91332 153.721 9.75986 153.473 9.45293L153.448 9.42735C153.362 9.32504 153.264 9.26963 153.154 9.2611C153.051 9.24405 152.949 9.2952 152.847 9.41456C152.761 9.49982 152.68 9.60213 152.604 9.72149C152.535 9.83233 152.472 9.96448 152.412 10.1179V13.4686C152.412 13.6306 152.446 13.767 152.514 13.8778C152.582 13.9801 152.697 14.0526 152.859 14.0952L153.243 14.2103V14.4533H150.046Z" fill="white"/>
<path d="M118.765 25.821V25.5524L119.276 25.4501C119.634 25.3734 119.813 25.1645 119.813 24.8234V21.3321C119.813 20.7353 119.813 20.1385 119.813 19.5417C119.813 18.9449 119.809 18.3481 119.801 17.7513H118.79C118.518 17.7513 118.317 17.8238 118.189 17.9687C118.061 18.1137 117.934 18.3183 117.806 18.5826L117.358 19.529H117L117.064 17.3677H124.405L124.469 19.529H124.11L123.663 18.5826C123.535 18.3183 123.407 18.1137 123.279 17.9687C123.151 17.8238 122.951 17.7513 122.678 17.7513H121.655V24.8234C121.655 25.173 121.834 25.3819 122.192 25.4501L122.717 25.5524V25.821H118.765Z" fill="white"/>
<path d="M124.544 25.821V25.578L124.735 25.514C124.906 25.4714 125.021 25.3989 125.081 25.2966C125.149 25.1943 125.183 25.0579 125.183 24.8874V21.1403C125.174 20.9528 125.14 20.8121 125.081 20.7183C125.021 20.616 124.906 20.5478 124.735 20.5137L124.544 20.4625V20.2323L126.628 19.4906L126.782 19.6313L126.897 20.7567V20.8462C127.025 20.6075 127.187 20.3858 127.383 20.1812C127.579 19.9766 127.792 19.8103 128.022 19.6824C128.252 19.5545 128.482 19.4906 128.713 19.4906C129.037 19.4906 129.28 19.5758 129.442 19.7464C129.604 19.9169 129.685 20.1343 129.685 20.3986C129.685 20.6885 129.604 20.9101 129.442 21.0636C129.28 21.2085 129.084 21.281 128.853 21.281C128.512 21.281 128.218 21.1275 127.971 20.8206L127.945 20.795C127.86 20.6927 127.762 20.6373 127.651 20.6288C127.549 20.6117 127.447 20.6629 127.344 20.7822C127.259 20.8675 127.178 20.9698 127.101 21.0892C127.033 21.2 126.969 21.3321 126.909 21.4856V24.8362C126.909 24.9982 126.944 25.1346 127.012 25.2455C127.08 25.3478 127.195 25.4202 127.357 25.4629L127.741 25.578V25.821H124.544Z" fill="white"/>
<path d="M131.706 26C131.22 26 130.806 25.8636 130.465 25.5908C130.133 25.3094 129.966 24.9087 129.966 24.3886C129.966 23.9794 130.163 23.6043 130.555 23.2632C130.955 22.9137 131.582 22.6579 132.435 22.4959C132.58 22.4618 132.746 22.432 132.933 22.4064C133.13 22.3723 133.321 22.3382 133.509 22.3041V21.3961C133.509 20.8163 133.436 20.4156 133.292 20.194C133.147 19.9723 132.916 19.8615 132.601 19.8615H132.563C132.366 19.8615 132.209 19.9254 132.089 20.0533C131.979 20.1726 131.906 20.373 131.872 20.6544L131.834 20.8206C131.808 21.1616 131.719 21.4131 131.565 21.5751C131.412 21.7286 131.22 21.8053 130.99 21.8053C130.776 21.8053 130.597 21.7414 130.452 21.6135C130.316 21.4771 130.248 21.3023 130.248 21.0892C130.248 20.7396 130.367 20.4455 130.606 20.2067C130.845 19.968 131.16 19.789 131.552 19.6696C131.953 19.5503 132.384 19.4906 132.844 19.4906C133.603 19.4906 134.182 19.6739 134.583 20.0405C134.984 20.4071 135.184 21.0039 135.184 21.8309V24.6828C135.184 25.0494 135.359 25.2327 135.709 25.2327H136.003L136.131 25.3734C135.977 25.5695 135.807 25.7187 135.619 25.821C135.431 25.9318 135.176 25.9872 134.852 25.9872C134.485 25.9872 134.191 25.902 133.969 25.7314C133.756 25.5524 133.615 25.3179 133.547 25.0281C133.274 25.3179 133.006 25.5524 132.742 25.7314C132.477 25.9105 132.132 26 131.706 26ZM132.447 25.1815C132.618 25.1815 132.78 25.1432 132.933 25.0664C133.087 24.9897 133.279 24.8618 133.509 24.6828V22.6366C133.287 22.6707 133.061 22.7133 132.831 22.7645C132.465 22.8497 132.166 23.0075 131.936 23.2377C131.714 23.4679 131.603 23.779 131.603 24.1712C131.603 24.5123 131.68 24.768 131.834 24.9385C131.996 25.1005 132.2 25.1815 132.447 25.1815Z" fill="white"/>
<path d="M139.106 26C138.603 26 138.151 25.8892 137.751 25.6675C137.35 25.4373 137.034 25.0877 136.804 24.6188C136.583 24.1414 136.472 23.5361 136.472 22.8028C136.472 22.0696 136.6 21.46 136.855 20.9741C137.111 20.4796 137.452 20.1087 137.878 19.8615C138.305 19.6142 138.774 19.4906 139.285 19.4906C139.592 19.4906 139.886 19.529 140.168 19.6057C140.449 19.6739 140.696 19.7805 140.909 19.9254V18.2629C140.909 18.0838 140.88 17.9559 140.82 17.8792C140.769 17.794 140.658 17.73 140.487 17.6874L140.232 17.6362V17.3932L142.457 16.8433L142.623 16.9584L142.572 18.7616V24.913C142.572 25.075 142.602 25.2114 142.661 25.3222C142.721 25.4245 142.828 25.497 142.981 25.5396L143.122 25.578V25.821L140.999 25.9616L140.884 25.4245C140.654 25.6036 140.389 25.7442 140.091 25.8465C139.792 25.9488 139.464 26 139.106 26ZM139.81 25.4117C140.176 25.4117 140.521 25.2924 140.845 25.0536V20.2963C140.53 20.1002 140.189 20.0021 139.822 20.0021C139.405 20.0021 139.046 20.2238 138.748 20.6671C138.45 21.102 138.3 21.8053 138.3 22.7773C138.3 23.7492 138.441 24.4313 138.722 24.8234C139.004 25.2156 139.366 25.4117 139.81 25.4117Z" fill="white"/>
<path d="M146.899 19.4906C147.436 19.4906 147.896 19.6014 148.28 19.8231C148.664 20.0448 148.958 20.3517 149.162 20.7439C149.375 21.1275 149.482 21.5709 149.482 22.0739C149.482 22.1847 149.478 22.2913 149.469 22.3936C149.461 22.4874 149.444 22.5769 149.418 22.6622H145.569C145.577 23.5403 145.739 24.1712 146.055 24.5549C146.379 24.9385 146.848 25.1304 147.461 25.1304C147.888 25.1304 148.233 25.0622 148.497 24.9258C148.762 24.7808 149.005 24.5805 149.226 24.3247L149.431 24.5165C149.175 24.9854 148.826 25.352 148.382 25.6163C147.947 25.8721 147.427 26 146.822 26C146.217 26 145.684 25.8721 145.223 25.6163C144.763 25.3606 144.401 24.994 144.136 24.5165C143.881 24.0306 143.753 23.4508 143.753 22.7773C143.753 22.0782 143.902 21.4856 144.2 20.9996C144.507 20.5137 144.899 20.1428 145.377 19.887C145.863 19.6227 146.37 19.4906 146.899 19.4906ZM146.835 19.8615C146.588 19.8615 146.37 19.9339 146.183 20.0789C146.004 20.2153 145.859 20.4625 145.748 20.8206C145.645 21.1702 145.586 21.6647 145.569 22.3041H147.858C147.952 21.443 147.918 20.8206 147.756 20.4369C147.594 20.0533 147.287 19.8615 146.835 19.8615Z" fill="white"/>
<rect x="108" width="1" height="32" fill="white"/>
<path d="M8.29651 23.7333H8.04895L3.07784 9.59619H0.00634766V9.96815L6.46407 27.2004H9.85652L16.3105 9.96815V9.59619H13.2639L8.29651 23.7333Z" fill="white"/>
<path d="M40.4135 11.1973H37.5162V14.4068H35.0767V16.4259H37.5162V24.104C37.5162 25.1191 37.8023 25.8892 38.3771 26.4142C38.9505 26.9391 39.7542 27.2004 40.7855 27.2004H43.1379V25.0706H41.466C40.7643 25.0706 40.4135 24.7198 40.4135 24.0182V16.4259H43.2126V14.4068H40.4135V11.1973Z" fill="white"/>
<path d="M28.6389 14.1108C26.7156 14.1108 25.1818 14.6744 24.0385 15.8015C22.8952 16.9286 22.323 18.5943 22.323 20.7987C22.323 23.0031 22.8965 24.6713 24.0447 25.8022C25.1917 26.933 26.7318 27.499 28.6638 27.499C29.6378 27.499 30.4701 27.3734 31.1593 27.1208C31.8485 26.8695 32.4182 26.5411 32.8686 26.1368C33.3189 25.7325 33.6635 25.2983 33.9024 24.8368C34.1412 24.374 34.3029 23.9324 34.385 23.5119V23.14H31.8087C31.7502 23.4783 31.6059 23.8217 31.3757 24.1675C31.1444 24.5146 30.806 24.8032 30.3606 25.0346C29.9153 25.266 29.3368 25.3817 28.6265 25.3817C27.528 25.3817 26.6783 25.0284 26.075 24.323C25.4716 23.6177 25.1581 22.6822 25.1332 21.5178H34.645V20.2911C34.645 18.3679 34.125 16.8564 33.085 15.7579C32.045 14.6595 30.5622 14.1108 28.6389 14.1108ZM25.1706 19.4975C25.2527 18.5483 25.5798 17.762 26.1496 17.1388C26.7194 16.5155 27.5404 16.2033 28.614 16.2033C29.6876 16.2033 30.5273 16.5106 31.0598 17.1264C31.5922 17.7421 31.8622 18.5321 31.8709 19.4975H25.1706Z" fill="white"/>
<path d="M52.794 23.9314C52.5838 24.3357 52.2678 24.6679 51.8461 24.9279C51.4256 25.1879 50.872 25.3185 50.1866 25.3185C49.0881 25.3185 48.2235 24.9242 47.5915 24.1354C46.9596 23.3467 46.6436 22.2346 46.6436 20.7977C46.6436 19.3609 46.9608 18.2612 47.5978 17.4725C48.2335 16.6837 49.0968 16.2894 50.1866 16.2894C50.8558 16.2894 51.3982 16.415 51.815 16.6676C52.2317 16.9201 52.544 17.2373 52.7505 17.6217C52.957 18.0061 53.0802 18.4005 53.1225 18.8048H55.8717V18.4328C55.7971 17.715 55.5421 17.0259 55.1042 16.364C54.6663 15.7035 54.0393 15.1623 53.222 14.7418C52.4047 14.3213 51.3846 14.1099 50.1629 14.1099C48.8667 14.1099 47.7309 14.3724 46.7568 14.8961C45.7827 15.4211 45.0276 16.1799 44.4902 17.1751C43.9528 18.1704 43.6853 19.3783 43.6853 20.7977C43.6853 22.2172 43.954 23.4375 44.4902 24.4328C45.0264 25.428 45.7802 26.1868 46.7506 26.7118C47.7209 27.2355 48.8579 27.498 50.1629 27.498C51.4679 27.498 52.4333 27.2853 53.2593 26.8599C54.0853 26.4344 54.7185 25.8808 55.1602 25.2003C55.6018 24.5186 55.8643 23.7946 55.9464 23.027V22.6551H53.1971C53.1399 23.1004 53.0055 23.5259 52.7953 23.9302L52.794 23.9314Z" fill="white"/>
<path d="M67.1002 16.0304H66.8527C66.5715 15.5514 66.1075 15.116 65.4594 14.7242C64.8112 14.3323 63.918 14.1357 62.7785 14.1357C61.639 14.1357 60.7122 14.3821 59.8252 14.8722C58.9382 15.3636 58.2341 16.1001 57.7141 17.0828C57.1941 18.0656 56.9341 19.3034 56.9341 20.7987C56.9341 22.294 57.1941 23.5343 57.7141 24.5208C58.2341 25.5074 58.9382 26.2463 59.8252 26.7377C60.7122 27.2291 61.6974 27.4742 62.7785 27.4742C63.918 27.4742 64.8112 27.2776 65.4594 26.8857C66.1075 26.4939 66.5715 26.0585 66.8527 25.5795H67.1002V27.2017H69.9242V14.4082H67.1002V16.0304ZM66.1224 24.1178C65.4619 24.8779 64.591 25.2573 63.5087 25.2573C62.4264 25.2573 61.5432 24.8779 60.8826 24.1178C60.222 23.3577 59.8924 22.2517 59.8924 20.7987C59.8924 19.3457 60.222 18.2522 60.8826 17.4921C61.5432 16.732 62.4177 16.3526 63.5087 16.3526C64.5998 16.3526 65.4606 16.732 66.1224 17.4921C66.783 18.2522 67.1127 19.3544 67.1127 20.7987C67.1127 22.243 66.7818 23.3589 66.1224 24.1178Z" fill="white"/>
<path d="M84.5241 17.0828C84.0041 16.1001 83.2999 15.3636 82.4129 14.8722C81.5247 14.3808 80.5407 14.1357 79.4596 14.1357C78.3201 14.1357 77.4281 14.3323 76.785 14.7242C76.1406 15.116 75.6741 15.5514 75.3855 16.0304H75.1379V14.4082H72.314V31.9999H75.2486V25.7275H75.4962C75.7599 26.1319 76.2015 26.5237 76.8211 26.9044C77.4406 27.2838 78.3201 27.4742 79.4584 27.4742C80.5967 27.4742 81.5247 27.2278 82.4117 26.7377C83.2987 26.2463 84.0028 25.5074 84.5228 24.5208C85.0428 23.5343 85.3028 22.294 85.3028 20.7987C85.3028 19.3034 85.0428 18.0656 84.5228 17.0828H84.5241ZM81.3543 24.1178C80.6937 24.8779 79.8229 25.2573 78.7406 25.2573C77.6583 25.2573 76.7862 24.8779 76.1219 24.1178C75.4576 23.3577 75.1242 22.2517 75.1242 20.7987C75.1242 19.3457 75.4564 18.2522 76.1219 17.4921C76.7862 16.732 77.6595 16.3526 78.7406 16.3526C79.8216 16.3526 80.6937 16.732 81.3543 17.4921C82.0149 18.2522 82.3445 19.3544 82.3445 20.7987C82.3445 22.243 82.0149 23.3589 81.3543 24.1178Z" fill="white"/>
<path d="M17.6467 27.2005H20.5814V14.4082H17.6467V27.2005Z" fill="white"/>
<path d="M19.0908 9.59668C18.2063 9.59668 17.4897 10.3132 17.4897 11.1977C17.4897 12.0822 18.2063 12.7988 19.0908 12.7988C19.9753 12.7988 20.6919 12.0822 20.6919 11.1977C20.6919 10.3132 19.9753 9.59668 19.0908 9.59668Z" fill="white"/>
<path d="M88.2995 12.811H97.9407C99.1188 12.811 99.8851 11.5707 99.3576 10.5183L94.537 0.877079C93.9536 -0.291058 92.2866 -0.291058 91.7019 0.877079L86.8813 10.5183C86.3551 11.5719 87.1202 12.811 88.2983 12.811H88.2995Z" fill="#00FF00"/>
</svg>
