<svg width="16" height="16" viewBox="0 0 16 16" fill="none" xmlns="http://www.w3.org/2000/svg">
    <path
        d="M13.3367 1.33337C14.0713 1.33337 14.6667 1.93204 14.6667 2.66004V13.34C14.6667 14.0727 14.0713 14.6667 13.3367 14.6667H3.66667C3.11438 14.6667 2.66667 14.219 2.66667 13.6667V12H2C1.63181 12 1.33334 11.7016 1.33334 11.3334C1.33334 10.9652 1.63181 10.6667 2 10.6667H2.66667V8.66671H2C1.63181 8.66671 1.33334 8.36823 1.33334 8.00004C1.33334 7.63185 1.63181 7.33337 2 7.33337H2.66667V5.33337H2C1.63181 5.33337 1.33334 5.0349 1.33334 4.66671C1.33334 4.29852 1.63181 4.00004 2 4.00004H2.66667V2.33337C2.66667 1.78109 3.11438 1.33337 3.66667 1.33337H13.3367ZM5.33334 2.66671H4V13.3334H5.33334V2.66671ZM13.3333 2.66671H6.66667V13.3334H13.3333V2.66671Z"
        fill="#515157" />
</svg>